<?xml version="1.0" encoding="utf-8" ?>
<svg baseProfile="full" height="38mm" version="1.1" width="210mm" xmlns="http://www.w3.org/2000/svg" xmlns:ev="http://www.w3.org/2001/xml-events" xmlns:xlink="http://www.w3.org/1999/xlink"><defs /><circle cx="8.0mm" cy="16mm" fill="none" r="5.25mm" stroke="black" stroke-dasharray="1" stroke-width="1" /><circle cx="8.0mm" cy="30mm" fill="none" r="3.0mm" stroke="black" stroke-dasharray="1" stroke-width="1" /><rect fill="none" height="32mm" rx="1.5mm" ry="1.5mm" stroke="black" stroke-dasharray="1" stroke-width="1" width="12mm" x="2mm" y="2mm" /><circle cx="22.0mm" cy="30mm" fill="none" r="3.0mm" stroke="black" stroke-dasharray="1" stroke-width="1" /><rect fill="none" height="32mm" rx="1.5mm" ry="1.5mm" stroke="black" stroke-dasharray="1" stroke-width="1" width="12mm" x="16mm" y="2mm" /><line fill="none" stroke="black" stroke-width="1" x1="30mm" x2="30mm" y1="36mm" y2="0mm" /><circle cx="38.0mm" cy="16mm" fill="none" r="5.25mm" stroke="black" stroke-dasharray="1" stroke-width="1" /><circle cx="38.0mm" cy="30mm" fill="none" r="3.0mm" stroke="black" stroke-dasharray="1" stroke-width="1" /><rect fill="none" height="32mm" rx="1.5mm" ry="1.5mm" stroke="black" stroke-dasharray="1" stroke-width="1" width="12mm" x="32mm" y="2mm" /><circle cx="52.0mm" cy="30mm" fill="none" r="3.0mm" stroke="black" stroke-dasharray="1" stroke-width="1" /><rect fill="none" height="32mm" rx="1.5mm" ry="1.5mm" stroke="black" stroke-dasharray="1" stroke-width="1" width="12mm" x="46mm" y="2mm" /><line fill="none" stroke="black" stroke-width="1" x1="60mm" x2="60mm" y1="36mm" y2="0mm" /><circle cx="68.0mm" cy="16mm" fill="none" r="5.25mm" stroke="black" stroke-dasharray="1" stroke-width="1" /><circle cx="68.0mm" cy="30mm" fill="none" r="3.0mm" stroke="black" stroke-dasharray="1" stroke-width="1" /><rect fill="none" height="32mm" rx="1.5mm" ry="1.5mm" stroke="black" stroke-dasharray="1" stroke-width="1" width="12mm" x="62mm" y="2mm" /><circle cx="82.0mm" cy="30mm" fill="none" r="3.0mm" stroke="black" stroke-dasharray="1" stroke-width="1" /><rect fill="none" height="32mm" rx="1.5mm" ry="1.5mm" stroke="black" stroke-dasharray="1" stroke-width="1" width="12mm" x="76mm" y="2mm" /><line fill="none" stroke="black" stroke-width="1" x1="90mm" x2="90mm" y1="36mm" y2="0mm" /><circle cx="98.0mm" cy="16mm" fill="none" r="5.25mm" stroke="black" stroke-dasharray="1" stroke-width="1" /><circle cx="98.0mm" cy="30mm" fill="none" r="3.0mm" stroke="black" stroke-dasharray="1" stroke-width="1" /><rect fill="none" height="32mm" rx="1.5mm" ry="1.5mm" stroke="black" stroke-dasharray="1" stroke-width="1" width="12mm" x="92mm" y="2mm" /><circle cx="112.0mm" cy="30mm" fill="none" r="3.0mm" stroke="black" stroke-dasharray="1" stroke-width="1" /><rect fill="none" height="32mm" rx="1.5mm" ry="1.5mm" stroke="black" stroke-dasharray="1" stroke-width="1" width="12mm" x="106mm" y="2mm" /><line fill="none" stroke="black" stroke-width="1" x1="120mm" x2="120mm" y1="36mm" y2="0mm" /><circle cx="128.0mm" cy="16mm" fill="none" r="5.25mm" stroke="black" stroke-dasharray="1" stroke-width="1" /><circle cx="128.0mm" cy="30mm" fill="none" r="3.0mm" stroke="black" stroke-dasharray="1" stroke-width="1" /><rect fill="none" height="32mm" rx="1.5mm" ry="1.5mm" stroke="black" stroke-dasharray="1" stroke-width="1" width="12mm" x="122mm" y="2mm" /><circle cx="142.0mm" cy="30mm" fill="none" r="3.0mm" stroke="black" stroke-dasharray="1" stroke-width="1" /><rect fill="none" height="32mm" rx="1.5mm" ry="1.5mm" stroke="black" stroke-dasharray="1" stroke-width="1" width="12mm" x="136mm" y="2mm" /><line fill="none" stroke="black" stroke-width="1" x1="150mm" x2="150mm" y1="36mm" y2="0mm" /><circle cx="158.0mm" cy="16mm" fill="none" r="5.25mm" stroke="black" stroke-dasharray="1" stroke-width="1" /><circle cx="158.0mm" cy="30mm" fill="none" r="3.0mm" stroke="black" stroke-dasharray="1" stroke-width="1" /><rect fill="none" height="32mm" rx="1.5mm" ry="1.5mm" stroke="black" stroke-dasharray="1" stroke-width="1" width="12mm" x="152mm" y="2mm" /><circle cx="172.0mm" cy="30mm" fill="none" r="3.0mm" stroke="black" stroke-dasharray="1" stroke-width="1" /><rect fill="none" height="32mm" rx="1.5mm" ry="1.5mm" stroke="black" stroke-dasharray="1" stroke-width="1" width="12mm" x="166mm" y="2mm" /><line fill="none" stroke="black" stroke-width="1" x1="180mm" x2="180mm" y1="36mm" y2="0mm" /><circle cx="188.0mm" cy="16mm" fill="none" r="5.25mm" stroke="black" stroke-dasharray="1" stroke-width="1" /><circle cx="188.0mm" cy="30mm" fill="none" r="3.0mm" stroke="black" stroke-dasharray="1" stroke-width="1" /><rect fill="none" height="32mm" rx="1.5mm" ry="1.5mm" stroke="black" stroke-dasharray="1" stroke-width="1" width="12mm" x="182mm" y="2mm" /><circle cx="202.0mm" cy="30mm" fill="none" r="3.0mm" stroke="black" stroke-dasharray="1" stroke-width="1" /><rect fill="none" height="32mm" rx="1.5mm" ry="1.5mm" stroke="black" stroke-dasharray="1" stroke-width="1" width="12mm" x="196mm" y="2mm" /><line fill="none" stroke="black" stroke-width="1" x1="210mm" x2="210mm" y1="36mm" y2="0mm" /><line fill="none" stroke="black" stroke-width="1" x1="0mm" x2="210mm" y1="36mm" y2="36mm" /></svg>