<?xml version="1.0" encoding="UTF-8" standalone="no"?>
<!-- Created with Inkscape (http://www.inkscape.org/) -->

<svg
   width="210mm"
   height="297mm"
   viewBox="0 0 210 297"
   version="1.1"
   id="svg1"
   inkscape:version="1.4.3 (0d15f75, 2025-12-25)"
   sodipodi:docname="row.svg"
   xmlns:inkscape="http://www.inkscape.org/namespaces/inkscape"
   xmlns:sodipodi="http://sodipodi.sourceforge.net/DTD/sodipodi-0.dtd"
   xmlns:xlink="http://www.w3.org/1999/xlink"
   xmlns="http://www.w3.org/2000/svg"
   xmlns:svg="http://www.w3.org/2000/svg">
  <sodipodi:namedview
     id="namedview1"
     pagecolor="#ffffff"
     bordercolor="#000000"
     borderopacity="0.25"
     inkscape:showpageshadow="2"
     inkscape:pageopacity="0.0"
     inkscape:pagecheckerboard="0"
     inkscape:deskcolor="#d1d1d1"
     inkscape:document-units="mm"
     inkscape:zoom="0.73512619"
     inkscape:cx="99.30268"
     inkscape:cy="157.79604"
     inkscape:window-width="2332"
     inkscape:window-height="1360"
     inkscape:window-x="1385"
     inkscape:window-y="0"
     inkscape:window-maximized="0"
     inkscape:current-layer="layer1" />
  <defs
     id="defs1" />
  <g
     inkscape:label="Layer 1"
     inkscape:groupmode="layer"
     id="layer1">
    <g
       id="g2"
       transform="translate(2,2)"
       inkscape:tile-cx="15"
       inkscape:tile-cy="18"
       inkscape:tile-w="30.049999"
       inkscape:tile-h="36.049999"
       inkscape:tile-x0="0"
       inkscape:tile-y0="0">
      <path
         id="rect1"
         style="fill:#7f7f7f;fill-opacity:0.5;stroke:#000000;stroke-width:0.1;stroke-opacity:1"
         d="m 1.5497762,0.05012614 c -0.831,0 -1.49965006,0.66865006 -1.49965006,1.49965006 V 30.550073 c 0,0.831 0.66865006,1.500167 1.49965006,1.500167 h 8.9999678 c 0.831,0 1.500166,-0.669167 1.500166,-1.500167 V 1.5497762 c 0,-0.831 -0.669166,-1.49965006 -1.500166,-1.49965006 z m 13.9996618,0 c -0.831,0 -1.49965,0.66865006 -1.49965,1.49965006 V 30.550073 c 0,0.831 0.66865,1.500167 1.49965,1.500167 h 8.999968 c 0.831,0 1.500167,-0.669167 1.500167,-1.500167 V 1.5497762 c 0,-0.831 -0.669167,-1.49965006 -1.500167,-1.49965006 z M 6.0001506,8.8361532 A 5.1639342,5.1639347 0 0 1 11.164176,14.000179 5.1639342,5.1639347 0 0 1 6.0001506,19.163688 5.1639342,5.1639347 0 0 1 0.83612467,14.000179 5.1639342,5.1639347 0 0 1 6.0001506,8.8361532 Z M 6.0497599,25.050151 A 3,3 0 0 1 9.0500936,28.049967 3,3 0 0 1 6.0497599,31.049784 3,3 0 0 1 3.049943,28.049967 3,3 0 0 1 6.0497599,25.050151 Z m 13.9996621,0 a 3,3 0 0 1 3.000334,2.999816 3,3 0 0 1 -3.000334,2.999817 3,3 0 0 1 -2.999817,-2.999817 3,3 0 0 1 2.999817,-2.999816 z"
         inkscape:label="kiss_cut" />
      <path
         style="fill:#7f7f7f;fill-opacity:0.5;stroke:#000000;stroke-width:0.1;stroke-opacity:1"
         d="M 28,34 V -2 34 H -2 28"
         id="path2"
         inkscape:label="die_cut" />
    </g>
    <use
       x="0"
       y="0"
       inkscape:tiled-clone-of="#g2"
       xlink:href="#g2"
       id="use8"
       inkscape:label="01" />
    <use
       x="0"
       y="0"
       inkscape:tiled-clone-of="#g2"
       xlink:href="#g2"
       transform="translate(30.049999)"
       id="use9"
       inkscape:label="02" />
    <use
       x="0"
       y="0"
       inkscape:tiled-clone-of="#g2"
       xlink:href="#g2"
       transform="translate(60.099998)"
       id="use10"
       inkscape:label="03" />
    <use
       x="0"
       y="0"
       inkscape:tiled-clone-of="#g2"
       xlink:href="#g2"
       transform="translate(90.149997)"
       id="use11"
       inkscape:label="04" />
    <use
       x="0"
       y="0"
       inkscape:tiled-clone-of="#g2"
       xlink:href="#g2"
       transform="translate(120.2)"
       id="use12"
       inkscape:label="05" />
    <use
       x="0"
       y="0"
       inkscape:tiled-clone-of="#g2"
       xlink:href="#g2"
       transform="translate(150.25)"
       id="use13"
       inkscape:label="06" />
    <use
       x="0"
       y="0"
       inkscape:tiled-clone-of="#g2"
       xlink:href="#g2"
       transform="translate(180.29999)"
       id="use14"
       inkscape:label="07" />
  </g>
</svg>
