<?xml version="1.0" encoding="utf-8" ?>
<svg baseProfile="full" height="35.5000000000000mm" version="1.1" width="292.100000000000mm" xmlns="http://www.w3.org/2000/svg" xmlns:ev="http://www.w3.org/2001/xml-events" xmlns:xlink="http://www.w3.org/1999/xlink"><defs /><path d="M 0 0 L 828.000000000000 0 L 828.000000000000 0.0283464566929134 L 0 0.0283464566929134 z M 0 0.0566929133858268 L 828.000000000000 0.0566929133858268 L 828.000000000000 0.0850393700787402 L 0 0.0850393700787402 z M 26.9291338582677 4.25196850393701 l 19.8425196850394 0 a 2.83464566929134 2.83464566929134 0 0 1 2.83464566929134 2.83464566929134 l 0 82.2047244094488 a 2.83464566929134 2.83464566929134 0 0 1 -2.83464566929134 2.83464566929134 l -39.6850393700787 0 a 2.83464566929134 2.83464566929134 0 0 1 -2.83464566929134 -2.83464566929134 l 0 -82.2047244094488 a 2.83464566929134 2.83464566929134 0 0 1 2.83464566929134 -2.83464566929134 z M 34.7244094488189 80.7874015748032 a 7.79527559055118 7.79527559055118 0 0 0 -15.5905511811024 0 a 7.79527559055118 7.79527559055118 0 0 0 15.5905511811024 0 z M 41.8110236220472 41.1023622047244 a 14.8818897637795 14.8818897637795 0 0 0 -29.7637795275591 0 a 14.8818897637795 14.8818897637795 0 0 0 29.7637795275591 0 z M 76.5354330708661 4.25196850393701 l 19.8425196850394 0 a 2.83464566929134 2.83464566929134 0 0 1 2.83464566929134 2.83464566929134 l 0 82.2047244094488 a 2.83464566929134 2.83464566929134 0 0 1 -2.83464566929134 2.83464566929134 l -39.6850393700787 0 a 2.83464566929134 2.83464566929134 0 0 1 -2.83464566929134 -2.83464566929134 l 0 -82.2047244094488 a 2.83464566929134 2.83464566929134 0 0 1 2.83464566929134 -2.83464566929134 z M 84.3307086614173 80.7874015748032 a 7.79527559055118 7.79527559055118 0 0 0 -15.5905511811024 0 a 7.79527559055118 7.79527559055118 0 0 0 15.5905511811024 0 z M 0 0.141732283464567 L 0 96.3779527559055 L 0.0283464566929134 96.3779527559055 L 0.0283464566929134 0.141732283464567 z M 0.0566929133858268 0.141732283464567 L 0.0566929133858268 96.3779527559055 L 0.0850393700787402 96.3779527559055 L 0.0850393700787402 0.141732283464567 z M 130.393700787402 4.25196850393701 l 19.8425196850394 0 a 2.83464566929134 2.83464566929134 0 0 1 2.83464566929134 2.83464566929134 l 0 82.2047244094488 a 2.83464566929134 2.83464566929134 0 0 1 -2.83464566929134 2.83464566929134 l -39.6850393700787 0 a 2.83464566929134 2.83464566929134 0 0 1 -2.83464566929134 -2.83464566929134 l 0 -82.2047244094488 a 2.83464566929134 2.83464566929134 0 0 1 2.83464566929134 -2.83464566929134 z M 138.188976377953 80.7874015748032 a 7.79527559055118 7.79527559055118 0 0 0 -15.5905511811024 0 a 7.79527559055118 7.79527559055118 0 0 0 15.5905511811024 0 z M 145.275590551181 41.1023622047244 a 14.8818897637795 14.8818897637795 0 0 0 -29.7637795275591 0 a 14.8818897637795 14.8818897637795 0 0 0 29.7637795275591 0 z M 180.000000000000 4.25196850393701 l 19.8425196850394 0 a 2.83464566929134 2.83464566929134 0 0 1 2.83464566929134 2.83464566929134 l 0 82.2047244094488 a 2.83464566929134 2.83464566929134 0 0 1 -2.83464566929134 2.83464566929134 l -39.6850393700787 0 a 2.83464566929134 2.83464566929134 0 0 1 -2.83464566929134 -2.83464566929134 l 0 -82.2047244094488 a 2.83464566929134 2.83464566929134 0 0 1 2.83464566929134 -2.83464566929134 z M 187.795275590551 80.7874015748032 a 7.79527559055118 7.79527559055118 0 0 0 -15.5905511811024 0 a 7.79527559055118 7.79527559055118 0 0 0 15.5905511811024 0 z M 103.464566929134 0.141732283464567 L 103.464566929134 96.3779527559055 L 103.492913385827 96.3779527559055 L 103.492913385827 0.141732283464567 z M 103.521259842520 0.141732283464567 L 103.521259842520 96.3779527559055 L 103.549606299213 96.3779527559055 L 103.549606299213 0.141732283464567 z M 233.858267716535 4.25196850393701 l 19.8425196850394 0 a 2.83464566929134 2.83464566929134 0 0 1 2.83464566929134 2.83464566929134 l 0 82.2047244094488 a 2.83464566929134 2.83464566929134 0 0 1 -2.83464566929134 2.83464566929134 l -39.6850393700787 0 a 2.83464566929134 2.83464566929134 0 0 1 -2.83464566929134 -2.83464566929134 l 0 -82.2047244094488 a 2.83464566929134 2.83464566929134 0 0 1 2.83464566929134 -2.83464566929134 z M 241.653543307087 80.7874015748032 a 7.79527559055118 7.79527559055118 0 0 0 -15.5905511811024 0 a 7.79527559055118 7.79527559055118 0 0 0 15.5905511811024 0 z M 248.740157480315 41.1023622047244 a 14.8818897637795 14.8818897637795 0 0 0 -29.7637795275591 0 a 14.8818897637795 14.8818897637795 0 0 0 29.7637795275591 0 z M 283.464566929134 4.25196850393701 l 19.8425196850394 0 a 2.83464566929134 2.83464566929134 0 0 1 2.83464566929134 2.83464566929134 l 0 82.2047244094488 a 2.83464566929134 2.83464566929134 0 0 1 -2.83464566929134 2.83464566929134 l -39.6850393700787 0 a 2.83464566929134 2.83464566929134 0 0 1 -2.83464566929134 -2.83464566929134 l 0 -82.2047244094488 a 2.83464566929134 2.83464566929134 0 0 1 2.83464566929134 -2.83464566929134 z M 291.259842519685 80.7874015748032 a 7.79527559055118 7.79527559055118 0 0 0 -15.5905511811024 0 a 7.79527559055118 7.79527559055118 0 0 0 15.5905511811024 0 z M 206.929133858268 0.141732283464567 L 206.929133858268 96.3779527559055 L 206.957480314961 96.3779527559055 L 206.957480314961 0.141732283464567 z M 206.985826771654 0.141732283464567 L 206.985826771654 96.3779527559055 L 207.014173228346 96.3779527559055 L 207.014173228346 0.141732283464567 z M 337.322834645669 4.25196850393701 l 19.8425196850394 0 a 2.83464566929134 2.83464566929134 0 0 1 2.83464566929134 2.83464566929134 l 0 82.2047244094488 a 2.83464566929134 2.83464566929134 0 0 1 -2.83464566929134 2.83464566929134 l -39.6850393700787 0 a 2.83464566929134 2.83464566929134 0 0 1 -2.83464566929134 -2.83464566929134 l 0 -82.2047244094488 a 2.83464566929134 2.83464566929134 0 0 1 2.83464566929134 -2.83464566929134 z M 345.118110236220 80.7874015748032 a 7.79527559055118 7.79527559055118 0 0 0 -15.5905511811024 0 a 7.79527559055118 7.79527559055118 0 0 0 15.5905511811024 0 z M 352.204724409449 41.1023622047244 a 14.8818897637795 14.8818897637795 0 0 0 -29.7637795275591 0 a 14.8818897637795 14.8818897637795 0 0 0 29.7637795275591 0 z M 386.929133858268 4.25196850393701 l 19.8425196850394 0 a 2.83464566929134 2.83464566929134 0 0 1 2.83464566929134 2.83464566929134 l 0 82.2047244094488 a 2.83464566929134 2.83464566929134 0 0 1 -2.83464566929134 2.83464566929134 l -39.6850393700787 0 a 2.83464566929134 2.83464566929134 0 0 1 -2.83464566929134 -2.83464566929134 l 0 -82.2047244094488 a 2.83464566929134 2.83464566929134 0 0 1 2.83464566929134 -2.83464566929134 z M 394.724409448819 80.7874015748032 a 7.79527559055118 7.79527559055118 0 0 0 -15.5905511811024 0 a 7.79527559055118 7.79527559055118 0 0 0 15.5905511811024 0 z M 310.393700787402 0.141732283464567 L 310.393700787402 96.3779527559055 L 310.422047244094 96.3779527559055 L 310.422047244094 0.141732283464567 z M 310.450393700787 0.141732283464567 L 310.450393700787 96.3779527559055 L 310.478740157480 96.3779527559055 L 310.478740157480 0.141732283464567 z M 440.787401574803 4.25196850393701 l 19.8425196850394 0 a 2.83464566929134 2.83464566929134 0 0 1 2.83464566929134 2.83464566929134 l 0 82.2047244094488 a 2.83464566929134 2.83464566929134 0 0 1 -2.83464566929134 2.83464566929134 l -39.6850393700787 0 a 2.83464566929134 2.83464566929134 0 0 1 -2.83464566929134 -2.83464566929134 l 0 -82.2047244094488 a 2.83464566929134 2.83464566929134 0 0 1 2.83464566929134 -2.83464566929134 z M 448.582677165354 80.7874015748032 a 7.79527559055118 7.79527559055118 0 0 0 -15.5905511811024 0 a 7.79527559055118 7.79527559055118 0 0 0 15.5905511811024 0 z M 455.669291338583 41.1023622047244 a 14.8818897637795 14.8818897637795 0 0 0 -29.7637795275591 0 a 14.8818897637795 14.8818897637795 0 0 0 29.7637795275591 0 z M 490.393700787402 4.25196850393701 l 19.8425196850394 0 a 2.83464566929134 2.83464566929134 0 0 1 2.83464566929134 2.83464566929134 l 0 82.2047244094488 a 2.83464566929134 2.83464566929134 0 0 1 -2.83464566929134 2.83464566929134 l -39.6850393700787 0 a 2.83464566929134 2.83464566929134 0 0 1 -2.83464566929134 -2.83464566929134 l 0 -82.2047244094488 a 2.83464566929134 2.83464566929134 0 0 1 2.83464566929134 -2.83464566929134 z M 498.188976377953 80.7874015748032 a 7.79527559055118 7.79527559055118 0 0 0 -15.5905511811024 0 a 7.79527559055118 7.79527559055118 0 0 0 15.5905511811024 0 z M 413.858267716535 0.141732283464567 L 413.858267716535 96.3779527559055 L 413.886614173228 96.3779527559055 L 413.886614173228 0.141732283464567 z M 413.914960629921 0.141732283464567 L 413.914960629921 96.3779527559055 L 413.943307086614 96.3779527559055 L 413.943307086614 0.141732283464567 z M 544.251968503937 4.25196850393701 l 19.8425196850394 0 a 2.83464566929134 2.83464566929134 0 0 1 2.83464566929134 2.83464566929134 l 0 82.2047244094488 a 2.83464566929134 2.83464566929134 0 0 1 -2.83464566929134 2.83464566929134 l -39.6850393700787 0 a 2.83464566929134 2.83464566929134 0 0 1 -2.83464566929134 -2.83464566929134 l 0 -82.2047244094488 a 2.83464566929134 2.83464566929134 0 0 1 2.83464566929134 -2.83464566929134 z M 552.047244094488 80.7874015748032 a 7.79527559055118 7.79527559055118 0 0 0 -15.5905511811024 0 a 7.79527559055118 7.79527559055118 0 0 0 15.5905511811024 0 z M 559.133858267717 41.1023622047244 a 14.8818897637795 14.8818897637795 0 0 0 -29.7637795275591 0 a 14.8818897637795 14.8818897637795 0 0 0 29.7637795275591 0 z M 593.858267716535 4.25196850393701 l 19.8425196850394 0 a 2.83464566929134 2.83464566929134 0 0 1 2.83464566929134 2.83464566929134 l 0 82.2047244094488 a 2.83464566929134 2.83464566929134 0 0 1 -2.83464566929134 2.83464566929134 l -39.6850393700787 0 a 2.83464566929134 2.83464566929134 0 0 1 -2.83464566929134 -2.83464566929134 l 0 -82.2047244094488 a 2.83464566929134 2.83464566929134 0 0 1 2.83464566929134 -2.83464566929134 z M 601.653543307087 80.7874015748032 a 7.79527559055118 7.79527559055118 0 0 0 -15.5905511811024 0 a 7.79527559055118 7.79527559055118 0 0 0 15.5905511811024 0 z M 517.322834645669 0.141732283464567 L 517.322834645669 96.3779527559055 L 517.351181102362 96.3779527559055 L 517.351181102362 0.141732283464567 z M 517.379527559055 0.141732283464567 L 517.379527559055 96.3779527559055 L 517.407874015748 96.3779527559055 L 517.407874015748 0.141732283464567 z M 647.716535433071 4.25196850393701 l 19.8425196850394 0 a 2.83464566929134 2.83464566929134 0 0 1 2.83464566929134 2.83464566929134 l 0 82.2047244094488 a 2.83464566929134 2.83464566929134 0 0 1 -2.83464566929134 2.83464566929134 l -39.6850393700787 0 a 2.83464566929134 2.83464566929134 0 0 1 -2.83464566929134 -2.83464566929134 l 0 -82.2047244094488 a 2.83464566929134 2.83464566929134 0 0 1 2.83464566929134 -2.83464566929134 z M 655.511811023622 80.7874015748032 a 7.79527559055118 7.79527559055118 0 0 0 -15.5905511811024 0 a 7.79527559055118 7.79527559055118 0 0 0 15.5905511811024 0 z M 662.598425196850 41.1023622047244 a 14.8818897637795 14.8818897637795 0 0 0 -29.7637795275591 0 a 14.8818897637795 14.8818897637795 0 0 0 29.7637795275591 0 z M 697.322834645669 4.25196850393701 l 19.8425196850394 0 a 2.83464566929134 2.83464566929134 0 0 1 2.83464566929134 2.83464566929134 l 0 82.2047244094488 a 2.83464566929134 2.83464566929134 0 0 1 -2.83464566929134 2.83464566929134 l -39.6850393700787 0 a 2.83464566929134 2.83464566929134 0 0 1 -2.83464566929134 -2.83464566929134 l 0 -82.2047244094488 a 2.83464566929134 2.83464566929134 0 0 1 2.83464566929134 -2.83464566929134 z M 705.118110236220 80.7874015748032 a 7.79527559055118 7.79527559055118 0 0 0 -15.5905511811024 0 a 7.79527559055118 7.79527559055118 0 0 0 15.5905511811024 0 z M 620.787401574803 0.141732283464567 L 620.787401574803 96.3779527559055 L 620.815748031496 96.3779527559055 L 620.815748031496 0.141732283464567 z M 620.844094488189 0.141732283464567 L 620.844094488189 96.3779527559055 L 620.872440944882 96.3779527559055 L 620.872440944882 0.141732283464567 z M 751.181102362205 4.25196850393701 l 19.8425196850394 0 a 2.83464566929134 2.83464566929134 0 0 1 2.83464566929134 2.83464566929134 l 0 82.2047244094488 a 2.83464566929134 2.83464566929134 0 0 1 -2.83464566929134 2.83464566929134 l -39.6850393700787 0 a 2.83464566929134 2.83464566929134 0 0 1 -2.83464566929134 -2.83464566929134 l 0 -82.2047244094488 a 2.83464566929134 2.83464566929134 0 0 1 2.83464566929134 -2.83464566929134 z M 758.976377952756 80.7874015748032 a 7.79527559055118 7.79527559055118 0 0 0 -15.5905511811024 0 a 7.79527559055118 7.79527559055118 0 0 0 15.5905511811024 0 z M 766.062992125984 41.1023622047244 a 14.8818897637795 14.8818897637795 0 0 0 -29.7637795275591 0 a 14.8818897637795 14.8818897637795 0 0 0 29.7637795275591 0 z M 800.787401574803 4.25196850393701 l 19.8425196850394 0 a 2.83464566929134 2.83464566929134 0 0 1 2.83464566929134 2.83464566929134 l 0 82.2047244094488 a 2.83464566929134 2.83464566929134 0 0 1 -2.83464566929134 2.83464566929134 l -39.6850393700787 0 a 2.83464566929134 2.83464566929134 0 0 1 -2.83464566929134 -2.83464566929134 l 0 -82.2047244094488 a 2.83464566929134 2.83464566929134 0 0 1 2.83464566929134 -2.83464566929134 z M 808.582677165354 80.7874015748032 a 7.79527559055118 7.79527559055118 0 0 0 -15.5905511811024 0 a 7.79527559055118 7.79527559055118 0 0 0 15.5905511811024 0 z M 724.251968503937 0.141732283464567 L 724.251968503937 96.3779527559055 L 724.280314960630 96.3779527559055 L 724.280314960630 0.141732283464567 z M 724.308661417323 0.141732283464567 L 724.308661417323 96.3779527559055 L 724.337007874016 96.3779527559055 L 724.337007874016 0.141732283464567 z M 827.716535433071 0.141732283464567 L 827.716535433071 96.3779527559055 L 827.744881889764 96.3779527559055 L 827.744881889764 0.141732283464567 z M 827.773228346457 0.141732283464567 L 827.773228346457 96.3779527559055 L 827.801574803150 96.3779527559055 L 827.801574803150 0.141732283464567 z M 0 96.3779527559055 L 828.000000000000 96.3779527559055 L 828.000000000000 96.4062992125984 L 0 96.4062992125984 z M 0 96.4346456692913 L 828.000000000000 96.4346456692913 L 828.000000000000 96.4629921259843 L 0 96.4629921259843 z" fill="#808080" fill-opacity="0.5" stroke="black" stroke-width="0.1" /></svg>