<?xml version="1.0" encoding="utf-8" ?>
<svg baseProfile="full" height="37.0000000000000mm" version="1.1" width="305.000000000000mm" xmlns="http://www.w3.org/2000/svg" xmlns:ev="http://www.w3.org/2001/xml-events" xmlns:xlink="http://www.w3.org/1999/xlink"><defs /><path d="M 28.3464566929134 5.66929133858268 l 19.8425196850394 0 a 2.83464566929134 2.83464566929134 0 0 1 2.83464566929134 2.83464566929134 l 0 82.2047244094488 a 2.83464566929134 2.83464566929134 0 0 1 -2.83464566929134 2.83464566929134 l -39.6850393700787 0 a 2.83464566929134 2.83464566929134 0 0 1 -2.83464566929134 -2.83464566929134 l 0 -82.2047244094488 a 2.83464566929134 2.83464566929134 0 0 1 2.83464566929134 -2.83464566929134 z M 36.1417322834646 82.2047244094488 a 7.79527559055118 7.79527559055118 0 0 0 -15.5905511811024 0 a 7.79527559055118 7.79527559055118 0 0 0 15.5905511811024 0 z M 43.2283464566929 42.5196850393701 a 14.8818897637795 14.8818897637795 0 0 0 -29.7637795275591 0 a 14.8818897637795 14.8818897637795 0 0 0 29.7637795275591 0 z M 79.3700787401575 5.66929133858268 l 19.8425196850394 0 a 2.83464566929134 2.83464566929134 0 0 1 2.83464566929134 2.83464566929134 l 0 82.2047244094488 a 2.83464566929134 2.83464566929134 0 0 1 -2.83464566929134 2.83464566929134 l -39.6850393700787 0 a 2.83464566929134 2.83464566929134 0 0 1 -2.83464566929134 -2.83464566929134 l 0 -82.2047244094488 a 2.83464566929134 2.83464566929134 0 0 1 2.83464566929134 -2.83464566929134 z M 87.1653543307087 82.2047244094488 a 7.79527559055118 7.79527559055118 0 0 0 -15.5905511811024 0 a 7.79527559055118 7.79527559055118 0 0 0 15.5905511811024 0 z M 0 0 L 0 99.2125984251968 L 107.716535433071 99.2125984251968 L 107.716535433071 0 z M 0.0283464566929134 0.0283464566929134 L 107.688188976378 0.0283464566929134 L 107.688188976378 99.1842519685039 L 0.0283464566929134 99.1842519685039 z M 0.0566929133858268 0.0566929133858268 L 0.0566929133858268 99.1559055118110 L 107.659842519685 99.1559055118110 L 107.659842519685 0.0566929133858268 z M 0.0850393700787402 0.0850393700787402 L 107.631496062992 0.0850393700787402 L 107.631496062992 99.1275590551181 L 0.0850393700787402 99.1275590551181 z" fill="#808080" fill-opacity="0.5" stroke="black" stroke-width="0.1" /><path d="M 136.062992125984 5.66929133858268 l 19.8425196850394 0 a 2.83464566929134 2.83464566929134 0 0 1 2.83464566929134 2.83464566929134 l 0 82.2047244094488 a 2.83464566929134 2.83464566929134 0 0 1 -2.83464566929134 2.83464566929134 l -39.6850393700787 0 a 2.83464566929134 2.83464566929134 0 0 1 -2.83464566929134 -2.83464566929134 l 0 -82.2047244094488 a 2.83464566929134 2.83464566929134 0 0 1 2.83464566929134 -2.83464566929134 z M 143.858267716535 82.2047244094488 a 7.79527559055118 7.79527559055118 0 0 0 -15.5905511811024 0 a 7.79527559055118 7.79527559055118 0 0 0 15.5905511811024 0 z M 150.944881889764 42.5196850393701 a 14.8818897637795 14.8818897637795 0 0 0 -29.7637795275591 0 a 14.8818897637795 14.8818897637795 0 0 0 29.7637795275591 0 z M 187.086614173228 5.66929133858268 l 19.8425196850394 0 a 2.83464566929134 2.83464566929134 0 0 1 2.83464566929134 2.83464566929134 l 0 82.2047244094488 a 2.83464566929134 2.83464566929134 0 0 1 -2.83464566929134 2.83464566929134 l -39.6850393700787 0 a 2.83464566929134 2.83464566929134 0 0 1 -2.83464566929134 -2.83464566929134 l 0 -82.2047244094488 a 2.83464566929134 2.83464566929134 0 0 1 2.83464566929134 -2.83464566929134 z M 194.881889763780 82.2047244094488 a 7.79527559055118 7.79527559055118 0 0 0 -15.5905511811024 0 a 7.79527559055118 7.79527559055118 0 0 0 15.5905511811024 0 z M 107.716535433071 0 L 107.716535433071 99.2125984251968 L 215.433070866142 99.2125984251968 L 215.433070866142 0 z M 107.744881889764 0.0283464566929134 L 215.404724409449 0.0283464566929134 L 215.404724409449 99.1842519685039 L 107.744881889764 99.1842519685039 z M 107.773228346457 0.0566929133858268 L 107.773228346457 99.1559055118110 L 215.376377952756 99.1559055118110 L 215.376377952756 0.0566929133858268 z M 107.801574803150 0.0850393700787402 L 215.348031496063 0.0850393700787402 L 215.348031496063 99.1275590551181 L 107.801574803150 99.1275590551181 z" fill="#808080" fill-opacity="0.5" stroke="black" stroke-width="0.1" /><path d="M 243.779527559055 5.66929133858268 l 19.8425196850394 0 a 2.83464566929134 2.83464566929134 0 0 1 2.83464566929134 2.83464566929134 l 0 82.2047244094488 a 2.83464566929134 2.83464566929134 0 0 1 -2.83464566929134 2.83464566929134 l -39.6850393700787 0 a 2.83464566929134 2.83464566929134 0 0 1 -2.83464566929134 -2.83464566929134 l 0 -82.2047244094488 a 2.83464566929134 2.83464566929134 0 0 1 2.83464566929134 -2.83464566929134 z M 251.574803149606 82.2047244094488 a 7.79527559055118 7.79527559055118 0 0 0 -15.5905511811024 0 a 7.79527559055118 7.79527559055118 0 0 0 15.5905511811024 0 z M 258.661417322835 42.5196850393701 a 14.8818897637795 14.8818897637795 0 0 0 -29.7637795275591 0 a 14.8818897637795 14.8818897637795 0 0 0 29.7637795275591 0 z M 294.803149606299 5.66929133858268 l 19.8425196850394 0 a 2.83464566929134 2.83464566929134 0 0 1 2.83464566929134 2.83464566929134 l 0 82.2047244094488 a 2.83464566929134 2.83464566929134 0 0 1 -2.83464566929134 2.83464566929134 l -39.6850393700787 0 a 2.83464566929134 2.83464566929134 0 0 1 -2.83464566929134 -2.83464566929134 l 0 -82.2047244094488 a 2.83464566929134 2.83464566929134 0 0 1 2.83464566929134 -2.83464566929134 z M 302.598425196850 82.2047244094488 a 7.79527559055118 7.79527559055118 0 0 0 -15.5905511811024 0 a 7.79527559055118 7.79527559055118 0 0 0 15.5905511811024 0 z M 215.433070866142 0 L 215.433070866142 99.2125984251968 L 323.149606299213 99.2125984251968 L 323.149606299213 0 z M 215.461417322835 0.0283464566929134 L 323.121259842520 0.0283464566929134 L 323.121259842520 99.1842519685039 L 215.461417322835 99.1842519685039 z M 215.489763779528 0.0566929133858268 L 215.489763779528 99.1559055118110 L 323.092913385827 99.1559055118110 L 323.092913385827 0.0566929133858268 z M 215.518110236220 0.0850393700787402 L 323.064566929134 0.0850393700787402 L 323.064566929134 99.1275590551181 L 215.518110236220 99.1275590551181 z" fill="#808080" fill-opacity="0.5" stroke="black" stroke-width="0.1" /><path d="M 351.496062992126 5.66929133858268 l 19.8425196850394 0 a 2.83464566929134 2.83464566929134 0 0 1 2.83464566929134 2.83464566929134 l 0 82.2047244094488 a 2.83464566929134 2.83464566929134 0 0 1 -2.83464566929134 2.83464566929134 l -39.6850393700787 0 a 2.83464566929134 2.83464566929134 0 0 1 -2.83464566929134 -2.83464566929134 l 0 -82.2047244094488 a 2.83464566929134 2.83464566929134 0 0 1 2.83464566929134 -2.83464566929134 z M 359.291338582677 82.2047244094488 a 7.79527559055118 7.79527559055118 0 0 0 -15.5905511811024 0 a 7.79527559055118 7.79527559055118 0 0 0 15.5905511811024 0 z M 366.377952755906 42.5196850393701 a 14.8818897637795 14.8818897637795 0 0 0 -29.7637795275591 0 a 14.8818897637795 14.8818897637795 0 0 0 29.7637795275591 0 z M 402.519685039370 5.66929133858268 l 19.8425196850394 0 a 2.83464566929134 2.83464566929134 0 0 1 2.83464566929134 2.83464566929134 l 0 82.2047244094488 a 2.83464566929134 2.83464566929134 0 0 1 -2.83464566929134 2.83464566929134 l -39.6850393700787 0 a 2.83464566929134 2.83464566929134 0 0 1 -2.83464566929134 -2.83464566929134 l 0 -82.2047244094488 a 2.83464566929134 2.83464566929134 0 0 1 2.83464566929134 -2.83464566929134 z M 410.314960629921 82.2047244094488 a 7.79527559055118 7.79527559055118 0 0 0 -15.5905511811024 0 a 7.79527559055118 7.79527559055118 0 0 0 15.5905511811024 0 z M 323.149606299213 0 L 323.149606299213 99.2125984251968 L 430.866141732283 99.2125984251968 L 430.866141732283 0 z M 323.177952755905 0.0283464566929134 L 430.837795275591 0.0283464566929134 L 430.837795275591 99.1842519685039 L 323.177952755905 99.1842519685039 z M 323.206299212598 0.0566929133858268 L 323.206299212598 99.1559055118110 L 430.809448818898 99.1559055118110 L 430.809448818898 0.0566929133858268 z M 323.234645669291 0.0850393700787402 L 430.781102362205 0.0850393700787402 L 430.781102362205 99.1275590551181 L 323.234645669291 99.1275590551181 z" fill="#808080" fill-opacity="0.5" stroke="black" stroke-width="0.1" /><path d="M 459.212598425197 5.66929133858268 l 19.8425196850394 0 a 2.83464566929134 2.83464566929134 0 0 1 2.83464566929134 2.83464566929134 l 0 82.2047244094488 a 2.83464566929134 2.83464566929134 0 0 1 -2.83464566929134 2.83464566929134 l -39.6850393700787 0 a 2.83464566929134 2.83464566929134 0 0 1 -2.83464566929134 -2.83464566929134 l 0 -82.2047244094488 a 2.83464566929134 2.83464566929134 0 0 1 2.83464566929134 -2.83464566929134 z M 467.007874015748 82.2047244094488 a 7.79527559055118 7.79527559055118 0 0 0 -15.5905511811024 0 a 7.79527559055118 7.79527559055118 0 0 0 15.5905511811024 0 z M 474.094488188976 42.5196850393701 a 14.8818897637795 14.8818897637795 0 0 0 -29.7637795275591 0 a 14.8818897637795 14.8818897637795 0 0 0 29.7637795275591 0 z M 510.236220472441 5.66929133858268 l 19.8425196850394 0 a 2.83464566929134 2.83464566929134 0 0 1 2.83464566929134 2.83464566929134 l 0 82.2047244094488 a 2.83464566929134 2.83464566929134 0 0 1 -2.83464566929134 2.83464566929134 l -39.6850393700787 0 a 2.83464566929134 2.83464566929134 0 0 1 -2.83464566929134 -2.83464566929134 l 0 -82.2047244094488 a 2.83464566929134 2.83464566929134 0 0 1 2.83464566929134 -2.83464566929134 z M 518.031496062992 82.2047244094488 a 7.79527559055118 7.79527559055118 0 0 0 -15.5905511811024 0 a 7.79527559055118 7.79527559055118 0 0 0 15.5905511811024 0 z M 430.866141732283 0 L 430.866141732283 99.2125984251968 L 538.582677165354 99.2125984251968 L 538.582677165354 0 z M 430.894488188976 0.0283464566929134 L 538.554330708661 0.0283464566929134 L 538.554330708661 99.1842519685039 L 430.894488188976 99.1842519685039 z M 430.922834645669 0.0566929133858268 L 430.922834645669 99.1559055118110 L 538.525984251968 99.1559055118110 L 538.525984251968 0.0566929133858268 z M 430.951181102362 0.0850393700787402 L 538.497637795276 0.0850393700787402 L 538.497637795276 99.1275590551181 L 430.951181102362 99.1275590551181 z" fill="#808080" fill-opacity="0.5" stroke="black" stroke-width="0.1" /><path d="M 566.929133858268 5.66929133858268 l 19.8425196850394 0 a 2.83464566929134 2.83464566929134 0 0 1 2.83464566929134 2.83464566929134 l 0 82.2047244094488 a 2.83464566929134 2.83464566929134 0 0 1 -2.83464566929134 2.83464566929134 l -39.6850393700787 0 a 2.83464566929134 2.83464566929134 0 0 1 -2.83464566929134 -2.83464566929134 l 0 -82.2047244094488 a 2.83464566929134 2.83464566929134 0 0 1 2.83464566929134 -2.83464566929134 z M 574.724409448819 82.2047244094488 a 7.79527559055118 7.79527559055118 0 0 0 -15.5905511811024 0 a 7.79527559055118 7.79527559055118 0 0 0 15.5905511811024 0 z M 581.811023622047 42.5196850393701 a 14.8818897637795 14.8818897637795 0 0 0 -29.7637795275591 0 a 14.8818897637795 14.8818897637795 0 0 0 29.7637795275591 0 z M 617.952755905512 5.66929133858268 l 19.8425196850394 0 a 2.83464566929134 2.83464566929134 0 0 1 2.83464566929134 2.83464566929134 l 0 82.2047244094488 a 2.83464566929134 2.83464566929134 0 0 1 -2.83464566929134 2.83464566929134 l -39.6850393700787 0 a 2.83464566929134 2.83464566929134 0 0 1 -2.83464566929134 -2.83464566929134 l 0 -82.2047244094488 a 2.83464566929134 2.83464566929134 0 0 1 2.83464566929134 -2.83464566929134 z M 625.748031496063 82.2047244094488 a 7.79527559055118 7.79527559055118 0 0 0 -15.5905511811024 0 a 7.79527559055118 7.79527559055118 0 0 0 15.5905511811024 0 z M 538.582677165354 0 L 538.582677165354 99.2125984251968 L 646.299212598425 99.2125984251968 L 646.299212598425 0 z M 538.611023622047 0.0283464566929134 L 646.270866141732 0.0283464566929134 L 646.270866141732 99.1842519685039 L 538.611023622047 99.1842519685039 z M 538.639370078740 0.0566929133858268 L 538.639370078740 99.1559055118110 L 646.242519685039 99.1559055118110 L 646.242519685039 0.0566929133858268 z M 538.667716535433 0.0850393700787402 L 646.214173228346 0.0850393700787402 L 646.214173228346 99.1275590551181 L 538.667716535433 99.1275590551181 z" fill="#808080" fill-opacity="0.5" stroke="black" stroke-width="0.1" /><path d="M 674.645669291339 5.66929133858268 l 19.8425196850394 0 a 2.83464566929134 2.83464566929134 0 0 1 2.83464566929134 2.83464566929134 l 0 82.2047244094488 a 2.83464566929134 2.83464566929134 0 0 1 -2.83464566929134 2.83464566929134 l -39.6850393700787 0 a 2.83464566929134 2.83464566929134 0 0 1 -2.83464566929134 -2.83464566929134 l 0 -82.2047244094488 a 2.83464566929134 2.83464566929134 0 0 1 2.83464566929134 -2.83464566929134 z M 682.440944881890 82.2047244094488 a 7.79527559055118 7.79527559055118 0 0 0 -15.5905511811024 0 a 7.79527559055118 7.79527559055118 0 0 0 15.5905511811024 0 z M 689.527559055118 42.5196850393701 a 14.8818897637795 14.8818897637795 0 0 0 -29.7637795275591 0 a 14.8818897637795 14.8818897637795 0 0 0 29.7637795275591 0 z M 725.669291338583 5.66929133858268 l 19.8425196850394 0 a 2.83464566929134 2.83464566929134 0 0 1 2.83464566929134 2.83464566929134 l 0 82.2047244094488 a 2.83464566929134 2.83464566929134 0 0 1 -2.83464566929134 2.83464566929134 l -39.6850393700787 0 a 2.83464566929134 2.83464566929134 0 0 1 -2.83464566929134 -2.83464566929134 l 0 -82.2047244094488 a 2.83464566929134 2.83464566929134 0 0 1 2.83464566929134 -2.83464566929134 z M 733.464566929134 82.2047244094488 a 7.79527559055118 7.79527559055118 0 0 0 -15.5905511811024 0 a 7.79527559055118 7.79527559055118 0 0 0 15.5905511811024 0 z M 646.299212598425 0 L 646.299212598425 99.2125984251968 L 754.015748031496 99.2125984251968 L 754.015748031496 0 z M 646.327559055118 0.0283464566929134 L 753.987401574803 0.0283464566929134 L 753.987401574803 99.1842519685039 L 646.327559055118 99.1842519685039 z M 646.355905511811 0.0566929133858268 L 646.355905511811 99.1559055118110 L 753.959055118110 99.1559055118110 L 753.959055118110 0.0566929133858268 z M 646.384251968504 0.0850393700787402 L 753.930708661417 0.0850393700787402 L 753.930708661417 99.1275590551181 L 646.384251968504 99.1275590551181 z" fill="#808080" fill-opacity="0.5" stroke="black" stroke-width="0.1" /><path d="M 782.362204724409 5.66929133858268 l 19.8425196850394 0 a 2.83464566929134 2.83464566929134 0 0 1 2.83464566929134 2.83464566929134 l 0 82.2047244094488 a 2.83464566929134 2.83464566929134 0 0 1 -2.83464566929134 2.83464566929134 l -39.6850393700787 0 a 2.83464566929134 2.83464566929134 0 0 1 -2.83464566929134 -2.83464566929134 l 0 -82.2047244094488 a 2.83464566929134 2.83464566929134 0 0 1 2.83464566929134 -2.83464566929134 z M 790.157480314961 82.2047244094488 a 7.79527559055118 7.79527559055118 0 0 0 -15.5905511811024 0 a 7.79527559055118 7.79527559055118 0 0 0 15.5905511811024 0 z M 797.244094488189 42.5196850393701 a 14.8818897637795 14.8818897637795 0 0 0 -29.7637795275591 0 a 14.8818897637795 14.8818897637795 0 0 0 29.7637795275591 0 z M 833.385826771654 5.66929133858268 l 19.8425196850394 0 a 2.83464566929134 2.83464566929134 0 0 1 2.83464566929134 2.83464566929134 l 0 82.2047244094488 a 2.83464566929134 2.83464566929134 0 0 1 -2.83464566929134 2.83464566929134 l -39.6850393700787 0 a 2.83464566929134 2.83464566929134 0 0 1 -2.83464566929134 -2.83464566929134 l 0 -82.2047244094488 a 2.83464566929134 2.83464566929134 0 0 1 2.83464566929134 -2.83464566929134 z M 841.181102362205 82.2047244094488 a 7.79527559055118 7.79527559055118 0 0 0 -15.5905511811024 0 a 7.79527559055118 7.79527559055118 0 0 0 15.5905511811024 0 z M 754.015748031496 0 L 754.015748031496 99.2125984251968 L 861.732283464567 99.2125984251968 L 861.732283464567 0 z M 754.044094488189 0.0283464566929134 L 861.703937007874 0.0283464566929134 L 861.703937007874 99.1842519685039 L 754.044094488189 99.1842519685039 z M 754.072440944882 0.0566929133858268 L 754.072440944882 99.1559055118110 L 861.675590551181 99.1559055118110 L 861.675590551181 0.0566929133858268 z M 754.100787401575 0.0850393700787402 L 861.647244094488 0.0850393700787402 L 861.647244094488 99.1275590551181 L 754.100787401575 99.1275590551181 z" fill="#808080" fill-opacity="0.5" stroke="black" stroke-width="0.1" /></svg>